<svg width="23" height="15" viewBox="0 0 23 15" fill="none" xmlns="http://www.w3.org/2000/svg">
<path d="M1.34722 14.9167H20.9028C21.575 14.9167 22.125 14.3667 22.125 13.6944C22.125 13.0222 21.575 12.4722 20.9028 12.4722H1.34722C0.675 12.4722 0.125 13.0222 0.125 13.6944C0.125 14.3667 0.675 14.9167 1.34722 14.9167ZM1.34722 8.80556H20.9028C21.575 8.80556 22.125 8.25556 22.125 7.58333C22.125 6.91111 21.575 6.36111 20.9028 6.36111H1.34722C0.675 6.36111 0.125 6.91111 0.125 7.58333C0.125 8.25556 0.675 8.80556 1.34722 8.80556ZM0.125 1.47222C0.125 2.14444 0.675 2.69444 1.34722 2.69444H20.9028C21.575 2.69444 22.125 2.14444 22.125 1.47222C22.125 0.8 21.575 0.25 20.9028 0.25H1.34722C0.675 0.25 0.125 0.8 0.125 1.47222Z" fill="white"/>
</svg>
